HIERARCHY
ROOT Hips
{
	OFFSET -0.001795 -0.223333 0.028219
	CHANNELS 6 Xposition Yposition Zposition Zrotation Yrotation Xrotation 
	JOINT LeftUpLeg
	{
		OFFSET 0.069520 -0.091406 -0.006815
		CHANNELS 3 Zrotation Yrotation Xrotation
		JOINT LeftLeg
		{
			OFFSET 0.034277 -0.375199 -0.004496
			CHANNELS 3 Zrotation Yrotation Xrotation
			JOINT LeftFoot
			{
				OFFSET -0.013596 -0.397961 -0.043693
				CHANNELS 3 Zrotation Yrotation Xrotation
				JOINT LeftToe
				{
					OFFSET 0.026358 -0.055791 0.119288
					CHANNELS 3 Zrotation Yrotation Xrotation
					End Site
					{
						OFFSET 0.000000 0.000000 0.000000
					}
				}
			}
		}
	}
	JOINT RightUpLeg
	{
		OFFSET -0.067670 -0.090522 -0.004320
		CHANNELS 3 Zrotation Yrotation Xrotation
		JOINT RightLeg
		{
			OFFSET -0.038290 -0.382569 -0.008850
			CHANNELS 3 Zrotation Yrotation Xrotation
			JOINT RightFoot
			{
				OFFSET 0.015774 -0.398415 -0.042312
				CHANNELS 3 Zrotation Yrotation Xrotation
				JOINT RightToe
				{
					OFFSET -0.025372 -0.048144 0.123348
					CHANNELS 3 Zrotation Yrotation Xrotation
					End Site
					{
						OFFSET 0.000000 0.000000 0.000000
					}
				}
			}
		}
	}
	JOINT Spine
	{
		OFFSET -0.002533 0.108963 -0.026696
		CHANNELS 3 Zrotation Yrotation Xrotation
		JOINT Spine1
		{
			OFFSET 0.005487 0.135180 0.001092
			CHANNELS 3 Zrotation Yrotation Xrotation
			JOINT Spine2
			{
				OFFSET 0.001457 0.052922 0.025425
				CHANNELS 3 Zrotation Yrotation Xrotation
				JOINT Neck
				{
					OFFSET -0.002778 0.213870 -0.042857
					CHANNELS 3 Zrotation Yrotation Xrotation
					JOINT Head
					{
						OFFSET 0.005152 0.064970 0.051349
						CHANNELS 3 Zrotation Yrotation Xrotation
						End Site
						{
							OFFSET 0.000000 0.000000 0.000000
						}
					}
				}
				JOINT LeftShoulder
				{
					OFFSET 0.078845 0.121749 -0.034090
					CHANNELS 3 Zrotation Yrotation Xrotation
					JOINT LeftArm
					{
						OFFSET 0.090977 0.030469 -0.008868
						CHANNELS 3 Zrotation Yrotation Xrotation
						JOINT LeftForeArm
						{
							OFFSET 0.259612 -0.012772 -0.027456
							CHANNELS 3 Zrotation Yrotation Xrotation
							JOINT LeftHand
							{
								OFFSET 0.249234 0.008986 -0.001171
								CHANNELS 3 Zrotation Yrotation Xrotation
								End Site
								{
									OFFSET 0.000000 0.000000 0.000000
								}
							}
						}
					}
				}
				JOINT RightShoulder
				{
					OFFSET -0.081759 0.118833 -0.038615
					CHANNELS 3 Zrotation Yrotation Xrotation
					JOINT RightArm
					{
						OFFSET -0.096012 0.032551 -0.009143
						CHANNELS 3 Zrotation Yrotation Xrotation
						JOINT RightForeArm
						{
							OFFSET -0.253742 -0.013329 -0.021401
							CHANNELS 3 Zrotation Yrotation Xrotation
							JOINT RightHand
							{
								OFFSET -0.255298 0.007772 -0.005559
								CHANNELS 3 Zrotation Yrotation Xrotation
								End Site
								{
									OFFSET 0.000000 0.000000 0.000000
								}
							}
						}
					}
				}
			}
		}
	}
}
MOTION
Frames: 16
Frame Time: 0.050000
0.006576 0.949439 0.021839 2.638939 2.663809 9.513476 4.186793 -0.828436 -11.797311 0.054730 -0.163861 4.319486 0.506580 4.769165 9.008796 0.000000 0.000000 0.000000 -6.794018 0.682826 -10.323220 -8.954687 0.639366 -2.510699 3.409546 0.770507 15.201599 0.000000 0.000000 0.000000 4.274553 0.022604 -2.670054 0.351738 -0.018363 -3.970355 -10.103455 7.024958 6.111563 17.175197 -8.438401 -16.512073 0.000000 0.000000 0.000000 -1.249701 -13.894813 4.271833 -22.340222 -31.208064 1.926544 -73.393833 -77.182853 60.886309 0.000000 0.000000 0.000000 1.181270 1.881446 0.818699 43.362691 20.879660 3.488973 115.014988 77.150138 113.354294 0.000000 0.000000 0.000000 
0.006565 0.949635 0.019881 2.552768 1.888764 9.984246 4.314595 -0.846917 -12.381983 -0.015465 -0.165521 4.719495 0.758784 5.053827 8.772402 0.000000 0.000000 0.000000 -6.721085 0.738681 -11.096290 -9.173403 0.640406 -2.575499 3.899555 1.563991 15.152963 0.000000 0.000000 0.000000 4.453794 -0.049564 -1.853159 0.140067 0.062146 -3.907289 -10.577974 6.927046 6.109114 18.209698 -8.618219 -18.159732 0.000000 0.000000 0.000000 -0.794592 -15.578887 4.886076 -21.771236 -31.432816 1.856500 -60.347174 -74.611068 47.433444 0.000000 0.000000 0.000000 0.627203 3.377188 1.360292 43.849750 22.285199 4.114506 91.655714 78.173952 89.143326 0.000000 0.000000 0.000000 
0.006732 0.949911 0.017723 2.577741 1.275563 10.409192 4.299231 -0.877125 -13.000917 -0.064190 -0.161575 4.884710 1.101888 5.750260 9.258846 0.000000 0.000000 0.000000 -6.721547 0.802281 -12.245477 -9.316375 0.716396 -1.985029 4.193745 2.125046 14.889836 0.000000 0.000000 0.000000 4.375727 -0.123106 -0.946041 0.262230 0.001383 -3.806153 -11.067798 6.464300 6.170404 18.751098 -8.668229 -19.241491 0.000000 0.000000 0.000000 -0.542144 -17.356874 5.529965 -22.114203 -32.026004 1.999443 -47.565619 -71.230726 35.068614 0.000000 0.000000 0.000000 0.464347 4.617254 1.813762 44.413165 23.503925 4.650805 70.407837 77.414458 67.149068 0.000000 0.000000 0.000000 
0.006922 0.950188 0.015204 2.580601 0.911534 10.796077 4.396928 -0.889670 -13.406759 0.042103 -0.163976 4.562936 1.273645 6.172907 9.795686 0.000000 0.000000 0.000000 -6.636473 0.851668 -12.978981 -9.470723 0.725033 -1.974415 4.437647 2.419955 15.107339 0.000000 0.000000 0.000000 4.154266 -0.218924 0.334506 0.738489 -0.214707 -3.495224 -11.751230 5.526842 5.733450 19.037847 -8.816811 -19.456861 0.000000 0.000000 0.000000 -0.800998 -19.805531 6.421438 -22.239054 -32.525884 2.140101 -36.103826 -66.623897 24.705272 0.000000 0.000000 0.000000 1.220152 6.761422 2.669152 45.181940 25.358396 5.468590 43.214846 75.194492 40.611563 0.000000 0.000000 0.000000 
0.007075 0.950487 0.011378 2.687091 0.403980 11.304994 4.492446 -0.923669 -14.265058 -0.102999 -0.147344 4.757724 1.352967 6.450722 10.469187 0.000000 0.000000 0.000000 -6.623255 0.919668 -14.148797 -9.210155 0.753083 -1.507667 4.424957 2.504402 14.705944 0.000000 0.000000 0.000000 3.832619 -0.308300 1.662920 1.081516 -0.356401 -3.687704 -12.317821 5.114046 6.171682 19.213453 -8.684950 -20.420907 0.000000 0.000000 0.000000 -1.190212 -22.392844 7.393052 -22.868078 -35.062033 2.609661 -19.349064 -60.223476 12.195313 0.000000 0.000000 0.000000 2.265289 8.590225 3.459045 46.603761 28.584631 6.966486 17.769353 70.464748 18.137295 0.000000 0.000000 0.000000 
0.007201 0.950130 0.006276 2.557949 -0.042194 12.130832 4.880073 -0.949618 -15.503744 -0.074717 -0.157194 5.001339 1.394574 6.524417 10.653051 0.000000 0.000000 0.000000 -6.501967 1.017064 -15.651651 -9.011986 0.754734 -1.281563 4.407198 2.169047 15.208162 0.000000 0.000000 0.000000 3.456553 -0.397471 3.099808 1.805573 -0.660922 -3.754866 -12.795841 4.152324 6.424300 19.564928 -8.655092 -21.478181 0.000000 0.000000 0.000000 -2.096718 -25.231147 8.610237 -22.777836 -38.020831 3.058644 -6.022076 -51.386671 4.125973 0.000000 0.000000 0.000000 4.017899 11.107291 4.590856 47.079247 33.000361 8.806385 1.970191 62.316295 5.431696 0.000000 0.000000 0.000000 
0.007240 0.950201 0.000459 2.363879 -0.355553 13.086285 5.076260 -1.014179 -17.312247 -0.057443 -0.171464 5.420368 1.387661 6.642539 11.247020 0.000000 0.000000 0.000000 -6.380849 1.123921 -17.315969 -8.455161 0.745907 -0.867592 4.590030 2.273729 15.622180 0.000000 0.000000 0.000000 3.153910 -0.478800 4.466763 2.105000 -0.818799 -3.033961 -13.024047 3.079652 5.954176 19.259309 -8.299843 -22.183631 0.000000 0.000000 0.000000 -2.788559 -28.257521 9.995896 -22.684610 -41.584803 3.671059 2.624241 -39.539929 0.282039 0.000000 0.000000 0.000000 5.600364 13.330718 5.615014 47.999749 37.841033 11.144401 -6.833691 52.566756 -0.203933 0.000000 0.000000 0.000000 
0.007304 0.950328 -0.004428 2.282275 -0.614195 14.081064 5.331465 -1.059834 -19.013946 -0.167490 -0.171038 6.009469 1.246513 6.449691 11.506902 0.000000 0.000000 0.000000 -6.383397 1.212130 -18.764402 -8.296977 0.739732 -0.737535 4.615781 2.067004 16.100447 0.000000 0.000000 0.000000 3.067272 -0.567841 5.728632 2.301097 -0.914012 -2.708270 -13.085866 2.425644 5.527484 18.866210 -8.044587 -22.299534 0.000000 0.000000 0.000000 -4.169057 -31.202050 11.538914 -22.069270 -44.210283 3.992337 5.813408 -28.524757 -0.474708 0.000000 0.000000 0.000000 7.276810 15.394530 6.659487 47.937046 41.755425 12.874442 -9.497673 42.474489 -1.377097 0.000000 0.000000 0.000000 
0.007311 0.950405 -0.007702 2.085294 -0.773504 14.710562 5.675689 -1.060232 -20.115936 -0.315113 -0.149555 6.118012 1.078716 6.369504 12.317222 0.000000 0.000000 0.000000 -6.160908 1.296835 -19.735997 -8.211323 0.754946 -0.497774 4.900274 2.484194 16.279807 0.000000 0.000000 0.000000 3.148552 -0.664142 6.891596 2.323550 -0.956565 -1.969494 -12.922243 1.696887 5.134505 18.335926 -7.689106 -22.560370 0.000000 0.000000 0.000000 -4.717785 -32.513919 12.355247 -22.949047 -46.766042 4.790475 6.732070 -20.157360 -0.437043 0.000000 0.000000 0.000000 7.568231 16.889652 7.279798 49.544622 44.646894 14.871413 -10.320944 33.814636 -1.435174 0.000000 0.000000 0.000000 
0.007125 0.950516 -0.009443 1.937238 -0.985164 15.148909 5.853240 -1.049260 -20.609959 0.091449 -0.197207 5.638673 0.961276 6.265966 12.757259 0.000000 0.000000 0.000000 -5.807313 1.381211 -20.327068 -8.423832 0.777408 -0.443957 5.183889 2.822199 16.576076 0.000000 0.000000 0.000000 3.105221 -0.724978 7.799238 2.590669 -1.064735 -2.070822 -13.034898 1.648388 5.285449 17.986148 -7.561176 -22.353639 0.000000 0.000000 0.000000 -5.536180 -33.834499 13.157912 -23.988574 -47.467022 5.300451 7.147976 -14.549727 -0.345876 0.000000 0.000000 0.000000 8.294335 17.889632 7.839145 50.829892 45.927117 16.001950 -10.718619 28.743722 -1.324413 0.000000 0.000000 0.000000 
0.006697 0.950754 -0.010511 1.801325 -1.125105 15.442851 6.004000 -1.039558 -21.023075 0.211429 -0.214550 5.628167 0.948053 6.226339 12.765343 0.000000 0.000000 0.000000 -5.634600 1.426742 -20.616033 -8.467118 0.764777 -0.568458 5.151796 2.724557 16.605185 0.000000 0.000000 0.000000 3.113295 -0.781970 8.575848 2.460545 -1.014604 -1.907413 -12.768871 1.452254 5.476249 17.999976 -7.454446 -22.889452 0.000000 0.000000 0.000000 -5.429315 -34.106805 13.337098 -25.633385 -47.770325 5.950654 7.798161 -11.927288 -0.337310 0.000000 0.000000 0.000000 8.043940 18.492710 8.044409 51.959795 46.723856 16.863802 -11.620672 25.460783 -1.355343 0.000000 0.000000 0.000000 
0.005954 0.950824 -0.011421 1.712828 -1.215336 16.041737 6.048761 -1.062383 -21.875565 0.284215 -0.227735 5.703151 1.042391 6.428078 12.984637 0.000000 0.000000 0.000000 -5.439326 1.502518 -21.386178 -8.579570 0.776559 -0.533211 5.199427 2.819651 16.565834 0.000000 0.000000 0.000000 3.156480 -0.830422 9.107469 2.350495 -0.951424 -2.174545 -12.725995 1.366872 6.038783 17.702296 -7.169155 -23.499934 0.000000 0.000000 0.000000 -4.771410 -34.262009 13.308960 -26.427278 -48.435898 6.350580 8.902944 -10.481851 -0.384935 0.000000 0.000000 0.000000 7.759993 18.597739 8.044203 52.995276 47.195987 17.514601 -12.306128 24.360080 -1.420292 0.000000 0.000000 0.000000 
0.004982 0.950813 -0.012254 1.618674 -1.209143 16.354377 6.317593 -1.043939 -22.464753 0.233537 -0.227304 5.934505 1.086401 6.533222 13.114277 0.000000 0.000000 0.000000 -5.254828 1.549044 -21.742445 -8.493207 0.774855 -0.470153 4.995719 2.426896 16.611411 0.000000 0.000000 0.000000 3.084368 -0.865998 9.731715 2.376972 -0.956991 -2.264024 -12.645034 1.487425 5.987183 17.605164 -6.992673 -23.869930 0.000000 0.000000 0.000000 -4.491366 -33.995687 13.129904 -27.010237 -48.402733 6.545443 9.675249 -10.628108 -0.458135 0.000000 0.000000 0.000000 7.511635 18.459858 7.978908 53.803021 46.993869 17.787715 -12.330449 24.664235 -1.437999 0.000000 0.000000 0.000000 
0.003864 0.950715 -0.012781 1.571224 -1.247461 16.329495 6.467018 -1.023818 -22.608112 0.216536 -0.222768 5.887688 1.251255 6.867469 13.402556 0.000000 0.000000 0.000000 -5.064388 1.579980 -21.827606 -8.585998 0.790741 -0.403632 5.072293 2.525721 16.674341 0.000000 0.000000 0.000000 2.855608 -0.877489 10.443246 2.417564 -0.967644 -2.395209 -12.389605 1.550798 6.043862 17.632066 -6.950424 -24.072530 0.000000 0.000000 0.000000 -4.033446 -33.409429 12.784383 -27.833677 -48.243364 6.796809 10.420427 -12.037637 -0.601006 0.000000 0.000000 0.000000 7.587842 18.345225 7.947127 53.646813 46.386818 17.365789 -12.273619 26.127204 -1.513329 0.000000 0.000000 0.000000 
0.002771 0.950507 -0.012902 1.484284 -1.299042 16.398780 6.743867 -0.981523 -22.640530 0.161894 -0.208941 5.737513 1.198941 6.755475 13.338453 0.000000 0.000000 0.000000 -4.859732 1.618939 -21.992730 -8.649287 0.781548 -0.531045 5.100981 2.462552 16.890021 0.000000 0.000000 0.000000 2.784256 -0.883945 10.707290 2.439465 -0.977468 -2.371648 -12.210542 1.737540 5.926459 17.741356 -6.973447 -24.122204 0.000000 0.000000 0.000000 -4.019261 -32.835643 12.523426 -28.367576 -47.147290 6.715670 10.772344 -15.286596 -0.827768 0.000000 0.000000 0.000000 7.340483 18.178387 7.859703 53.741189 45.521948 16.956698 -11.799172 28.537612 -1.549834 0.000000 0.000000 0.000000 
0.001835 0.950207 -0.012757 1.388220 -1.480560 16.357644 6.797762 -0.958512 -22.473176 0.197597 -0.207941 5.568593 1.462135 7.081966 13.042551 0.000000 0.000000 0.000000 -4.711976 1.647406 -22.019447 -8.561023 0.781383 -0.447740 5.142411 2.524476 16.840404 0.000000 0.000000 0.000000 2.670584 -0.884341 11.040235 2.288178 -0.903846 -2.577281 -11.799313 2.103147 6.123253 17.857087 -7.009852 -24.210647 0.000000 0.000000 0.000000 -3.715878 -32.029802 12.094913 -29.526863 -46.371547 6.893645 11.301126 -19.213828 -1.150785 0.000000 0.000000 0.000000 7.013409 17.814566 7.680871 54.146704 44.779261 16.717519 -11.711511 31.662697 -1.682581 0.000000 0.000000 0.000000 
